<?xml version="1.0" standalone="no"?><svg xmlns="http://www.w3.org/2000/svg" viewBox="0 0 1440 320"><path fill="#33ab6c" fill-opacity="1" d="M0,128L21.8,133.3C43.6,139,87,149,131,138.7C174.5,128,218,96,262,69.3C305.5,43,349,21,393,26.7C436.4,32,480,64,524,74.7C567.3,85,611,75,655,85.3C698.2,96,742,128,785,122.7C829.1,117,873,75,916,96C960,117,1004,203,1047,234.7C1090.9,267,1135,245,1178,234.7C1221.8,224,1265,224,1309,229.3C1352.7,235,1396,245,1418,250.7L1440,256L1440,0L1418.2,0C1396.4,0,1353,0,1309,0C1265.5,0,1222,0,1178,0C1134.5,0,1091,0,1047,0C1003.6,0,960,0,916,0C872.7,0,829,0,785,0C741.8,0,698,0,655,0C610.9,0,567,0,524,0C480,0,436,0,393,0C349.1,0,305,0,262,0C218.2,0,175,0,131,0C87.3,0,44,0,22,0L0,0Z"></path></svg>