<?xml version="1.0" standalone="no"?><svg xmlns="http://www.w3.org/2000/svg" viewBox="0 0 1440 320"><path fill="#0099ff" fill-opacity="1" d="M0,96L24,96C48,96,96,96,144,106.7C192,117,240,139,288,160C336,181,384,203,432,186.7C480,171,528,117,576,101.3C624,85,672,107,720,117.3C768,128,816,128,864,117.3C912,107,960,85,1008,85.3C1056,85,1104,107,1152,128C1200,149,1248,171,1296,160C1344,149,1392,107,1416,85.3L1440,64L1440,320L1416,320C1392,320,1344,320,1296,320C1248,320,1200,320,1152,320C1104,320,1056,320,1008,320C960,320,912,320,864,320C816,320,768,320,720,320C672,320,624,320,576,320C528,320,480,320,432,320C384,320,336,320,288,320C240,320,192,320,144,320C96,320,48,320,24,320L0,320Z"></path></svg>