<?xml version="1.0" standalone="no"?><svg xmlns="http://www.w3.org/2000/svg" viewBox="0 0 1440 320"><path fill="#33AB6C" fill-opacity="1" d="M0,128L30,128C60,128,120,128,180,133.3C240,139,300,149,360,176C420,203,480,245,540,272C600,299,660,309,720,309.3C780,309,840,299,900,266.7C960,235,1020,181,1080,176C1140,171,1200,213,1260,224C1320,235,1380,213,1410,202.7L1440,192L1440,320L1410,320C1380,320,1320,320,1260,320C1200,320,1140,320,1080,320C1020,320,960,320,900,320C840,320,780,320,720,320C660,320,600,320,540,320C480,320,420,320,360,320C300,320,240,320,180,320C120,320,60,320,30,320L0,320Z"></path></svg>